<svg width="32" height="32" viewBox="0 0 32 32" fill="none" xmlns="http://www.w3.org/2000/svg">
<circle cx="16" cy="16" r="16" fill="white"/>
<path d="M20.3115 5.33325H11.6888C8.18448 5.33325 5.3335 8.18423 5.3335 11.6886V20.3113C5.3335 23.8156 8.18448 26.6666 11.6888 26.6666H20.3115C23.8158 26.6666 26.6668 23.8156 26.6668 20.3113V11.6886C26.6668 8.18423 23.8158 5.33325 20.3115 5.33325ZM24.5207 20.3113C24.5207 22.6359 22.6362 24.5205 20.3115 24.5205H11.6888C9.36416 24.5205 7.47963 22.6359 7.47963 20.3113V11.6886C7.47963 9.36388 9.36416 7.47938 11.6888 7.47938H20.3115C22.6362 7.47938 24.5207 9.36388 24.5207 11.6886V20.3113Z" fill="black"/>
<path d="M16 10.4824C12.9576 10.4824 10.4824 12.9576 10.4824 15.9999C10.4824 19.0423 12.9576 21.5175 16 21.5175C19.0424 21.5175 21.5175 19.0423 21.5175 15.9999C21.5175 12.9576 19.0424 10.4824 16 10.4824ZM16 19.3714C14.138 19.3714 12.6286 17.862 12.6286 16C12.6286 14.138 14.138 12.6286 16 12.6286C17.862 12.6286 19.3714 14.138 19.3714 16C19.3714 17.8619 17.8619 19.3714 16 19.3714Z" fill="black"/>
<path d="M21.5282 11.8459C22.2584 11.8459 22.8503 11.254 22.8503 10.5238C22.8503 9.79359 22.2584 9.20166 21.5282 9.20166C20.798 9.20166 20.2061 9.79359 20.2061 10.5238C20.2061 11.254 20.798 11.8459 21.5282 11.8459Z" fill="black"/>
</svg>
