<svg width="32" height="32" viewBox="0 0 32 32" fill="none" xmlns="http://www.w3.org/2000/svg">
<path fill-rule="evenodd" clip-rule="evenodd" d="M13.0104 12.6V11.3519C12.5772 11.2905 12.1404 11.2587 11.7029 11.2566C6.35271 11.2566 2 15.6101 2 20.9603C2 24.2422 3.64023 27.1474 6.14237 28.9042C4.46698 27.1125 3.53555 24.7507 3.5369 22.2978C3.5369 17.0238 7.76573 12.7231 13.0104 12.6Z" fill="#00F2EA"/>
<path fill-rule="evenodd" clip-rule="evenodd" d="M13.2389 26.7289C15.626 26.7289 17.5733 24.83 17.662 22.4635L17.67 1.33755H21.5295C21.4471 0.896453 21.4054 0.448723 21.4049 0H16.1339L16.1251 21.1267C16.0372 23.4925 14.0891 25.3907 11.7028 25.3907C10.9863 25.3909 10.2806 25.2164 9.64697 24.8821C10.0561 25.4529 10.5953 25.9181 11.2199 26.2393C11.8445 26.5605 12.5366 26.7283 13.2389 26.7289ZM28.7391 8.50827V7.33413C27.3207 7.33547 25.9328 6.92287 24.7455 6.14685C25.7864 7.3454 27.188 8.17393 28.7398 8.50827" fill="#00F2EA"/>
<path fill-rule="evenodd" clip-rule="evenodd" d="M24.7453 6.14598C23.5818 4.81463 22.941 3.10628 22.9417 1.33813H21.5294C21.7123 2.31543 22.0916 3.24543 22.6444 4.07185C23.1972 4.89826 23.9119 5.60388 24.7453 6.14598ZM11.7026 16.5283C10.5278 16.5297 9.40155 16.9969 8.57082 17.8277C7.74015 18.6583 7.27288 19.7846 7.27148 20.9594C7.27228 21.7675 7.49388 22.5601 7.91242 23.2515C8.33095 23.9427 8.93042 24.5065 9.64608 24.8819C9.10115 24.1305 8.80775 23.2259 8.80768 22.2977C8.80882 21.1228 9.27602 19.9963 10.1068 19.1655C10.9375 18.3346 12.0639 17.8672 13.2388 17.8659C13.6954 17.8659 14.133 17.9413 14.5463 18.0711V12.6893C14.1132 12.628 13.6763 12.5961 13.2388 12.5941C13.1618 12.5941 13.0864 12.5985 13.0102 12.5999V16.7335C12.5873 16.5989 12.1464 16.5297 11.7026 16.5283Z" fill="#FF004F"/>
<path fill-rule="evenodd" clip-rule="evenodd" d="M28.7395 8.5083V12.6052C26.0057 12.6052 23.4735 11.7309 21.4053 10.2468V20.9596C21.4053 26.3098 17.0533 30.6625 11.7031 30.6625C9.6356 30.6625 7.71833 30.0102 6.14258 28.9036C7.04853 29.8805 8.14646 30.6598 9.36766 31.1927C10.5889 31.7255 11.9069 32.0004 13.2393 32C18.5895 32 22.9422 27.6474 22.9422 22.2979V11.585C25.0788 13.1214 27.6447 13.9466 30.2763 13.9435V8.67104C29.7487 8.67104 29.2356 8.61384 28.7395 8.50757" fill="#FF004F"/>
<path fill-rule="evenodd" clip-rule="evenodd" d="M21.4053 20.9594V10.2466C23.5418 11.7831 26.1077 12.6083 28.7395 12.6051V8.50812C27.1878 8.17345 25.7865 7.34465 24.7459 6.14598C23.9124 5.60388 23.1976 4.89826 22.6448 4.07185C22.0921 3.24543 21.7127 2.31543 21.5299 1.33813H17.6704L17.6623 22.4641C17.5737 24.8299 15.6263 26.7289 13.2393 26.7289C12.5369 26.7281 11.8449 26.5602 11.2203 26.2391C10.5957 25.9179 10.0565 25.4527 9.64734 24.8819C8.93154 24.5067 8.33187 23.9429 7.9132 23.2516C7.49454 22.5603 7.2728 21.7677 7.272 20.9594C7.27334 19.7846 7.7406 18.6583 8.57134 17.8277C9.402 16.9969 10.5283 16.5297 11.7031 16.5283C12.159 16.5283 12.5965 16.6031 13.0106 16.7335V12.5999C7.76594 12.7231 3.53711 17.0237 3.53711 22.2977C3.53711 24.8482 4.528 27.1701 6.14258 28.9041C7.77027 30.0499 9.7126 30.6641 11.7031 30.6623C17.0533 30.6623 21.4053 26.3096 21.4053 20.9594Z" fill="black"/>
</svg>
